<svg width="744" height="1133" viewBox="0 0 744 1133" fill="none" xmlns="http://www.w3.org/2000/svg">
<rect width="744" height="1133" rx="50" fill="white"/>
<path d="M93.4702 850.822C86.939 850.822 81.0608 849.885 75.8359 848.009C70.7114 846.03 66.6922 843.321 63.7783 839.883C60.9648 836.34 59.5581 832.381 59.5581 828.006C59.5581 823.213 61.0151 819.254 63.929 816.128C66.9434 813.003 70.7114 811.44 75.233 811.44C76.1373 811.44 76.8407 811.596 77.3431 811.909C77.8455 812.221 78.0967 812.586 78.0967 813.003C78.0967 813.315 77.6445 814.149 76.7402 815.503C75.9364 816.858 75.233 818.368 74.6301 820.035C74.0272 821.702 73.7258 823.682 73.7258 825.974C73.7258 830.975 75.5344 835.038 79.1517 838.164C82.769 841.289 87.5419 842.852 93.4702 842.852C98.6951 842.852 102.915 841.446 106.131 838.633C109.346 835.715 110.954 831.756 110.954 826.755C110.954 822.692 109.949 819.254 107.939 816.441C105.93 813.628 103.418 811.336 100.403 809.565C97.4894 807.689 93.5204 805.606 88.4964 803.313C82.769 800.709 78.0967 798.26 74.4794 795.968C70.9626 793.676 67.9482 790.655 65.4362 786.904C63.0247 783.153 61.8189 778.413 61.8189 772.683C61.8189 767.89 62.9242 763.41 65.1348 759.243C67.4458 754.971 70.8621 751.585 75.3837 749.085C79.9053 746.48 85.3815 745.178 91.8123 745.178C97.6401 745.178 102.865 746.063 107.487 747.834C112.109 749.606 115.727 752.054 118.339 755.18C120.951 758.305 122.258 761.9 122.258 765.963C122.258 770.755 120.851 774.714 118.038 777.84C115.325 780.861 111.858 782.372 107.638 782.372C105.829 782.372 104.925 781.799 104.925 780.653C104.925 780.445 105.277 779.715 105.98 778.465C106.784 777.111 107.487 775.6 108.09 773.933C108.693 772.162 108.994 770.13 108.994 767.838C108.994 763.566 107.387 760.024 104.171 757.211C100.956 754.398 96.8363 752.992 91.8123 752.992C86.3863 752.992 82.2164 754.606 79.3024 757.836C76.3885 760.962 74.9316 764.817 74.9316 769.401C74.9316 772.943 75.8861 775.965 77.7952 778.465C79.7044 780.966 82.0656 783.101 84.8791 784.873C87.6926 786.54 91.6113 788.519 96.6353 790.811C102.664 793.624 107.537 796.229 111.255 798.625C115.073 801.021 118.289 804.251 120.901 808.314C123.514 812.273 124.82 817.222 124.82 823.161C124.82 831.6 122.057 838.32 116.53 843.321C111.104 848.322 103.418 850.822 93.4702 850.822ZM179.92 850.822C170.475 850.822 162.487 848.53 155.955 843.946C149.424 839.258 144.501 832.954 141.185 825.036C137.97 817.014 136.362 808.054 136.362 798.156C136.362 788.05 137.97 779.038 141.185 771.12C144.501 763.098 149.424 756.794 155.955 752.21C162.587 747.522 170.726 745.178 180.372 745.178C186.3 745.178 191.576 746.063 196.198 747.834C200.82 749.606 204.437 752.054 207.05 755.18C209.662 758.305 210.968 761.9 210.968 765.963C210.968 770.755 209.612 774.714 206.899 777.84C204.186 780.861 200.77 782.372 196.65 782.372C194.54 782.372 193.485 781.799 193.485 780.653C193.485 780.445 193.887 779.715 194.69 778.465C195.494 777.111 196.198 775.6 196.801 773.933C197.403 772.162 197.705 770.13 197.705 767.838C197.705 763.462 196.097 759.92 192.882 757.211C189.767 754.398 185.597 752.992 180.372 752.992C173.64 752.992 168.114 755.18 163.793 759.555C159.573 763.931 156.508 769.557 154.599 776.433C152.69 783.206 151.735 790.446 151.735 798.156C151.735 805.97 152.941 813.159 155.353 819.723C157.764 826.286 161.18 831.496 165.602 835.351C170.123 839.101 175.298 840.977 181.126 840.977C186.954 840.977 192.028 839.883 196.348 837.695C200.77 835.403 204.286 832.277 206.899 828.318C207.2 827.901 207.502 827.693 207.803 827.693C208.707 827.693 209.662 828.162 210.667 829.1C211.672 829.933 212.174 830.819 212.174 831.756C212.174 832.069 212.074 832.433 211.873 832.85C203.834 844.832 193.183 850.822 179.92 850.822ZM333.23 850.822C332.526 850.093 331.723 849.572 330.818 849.26C330.014 848.947 328.909 848.791 327.502 848.791H269.928L268.27 844.259L271.284 843.477C274.6 842.435 276.811 841.133 277.916 839.57C279.021 837.903 279.574 835.038 279.574 830.975V775.496C279.574 769.87 279.122 765.338 278.217 761.9C277.313 758.461 275.756 755.18 273.545 752.054L271.737 749.397L273.545 747.209H315.294C323.232 747.209 328.356 746.22 330.668 744.24L333.38 742.365L335.34 744.24V769.401L330.668 771.12L329.914 767.682C328.708 762.577 327.151 759.191 325.242 757.524C323.332 755.857 320.017 755.023 315.294 755.023H301.881C298.364 755.023 296.002 755.753 294.797 757.211C293.691 758.67 293.139 761.587 293.139 765.963V793.155H310.471C312.782 793.155 314.741 792.686 316.349 791.749C317.957 790.811 319.615 789.144 321.323 786.748L322.378 785.185L325.091 786.748V810.971L320.569 812.69L319.665 809.096C318.66 805.866 317.153 803.73 315.143 802.688C313.134 801.646 309.617 801.126 304.593 801.126H293.139V830.037C293.139 833.059 293.34 835.351 293.742 836.913C294.244 838.372 295.098 839.362 296.304 839.883C297.51 840.404 299.369 840.664 301.881 840.664H316.5C319.816 840.664 322.378 840.352 324.187 839.726C325.995 838.997 327.402 837.747 328.407 835.976C329.512 834.205 330.517 831.6 331.421 828.162L332.325 825.036L336.847 826.443V850.822L334.285 852.229L333.23 850.822ZM381.729 850.822C377.006 850.822 373.188 849.885 370.274 848.009C367.461 846.134 365.2 843.165 363.492 839.101C361.884 834.934 360.578 829.152 359.573 821.754L355.052 792.061C354.851 790.707 354.599 789.821 354.298 789.405C353.996 788.884 353.394 788.623 352.489 788.623H346.611L345.255 785.185C347.666 782.789 350.48 780.809 353.695 779.246C357.011 777.58 359.925 776.746 362.437 776.746C364.949 776.746 366.456 778.153 366.958 780.966L372.987 825.505C373.791 831.131 374.997 835.246 376.604 837.851C378.212 840.352 380.523 841.602 383.538 841.602C389.165 841.602 393.435 838.268 396.349 831.6C399.263 824.932 400.72 816.806 400.72 807.22C400.72 802.74 400.167 798.365 399.062 794.093C398.057 789.717 396.55 785.862 394.54 782.528L393.334 780.34L394.842 778.621L411.27 776.746C411.672 783.414 411.873 788.415 411.873 791.749C411.873 804.251 410.466 814.982 407.653 823.942C404.94 832.798 401.272 839.518 396.65 844.102C392.129 848.582 387.155 850.822 381.729 850.822ZM458.144 850.822C451.814 850.822 446.287 849.312 441.565 846.29C436.842 843.269 433.175 839.049 430.562 833.632C427.95 828.11 426.644 821.754 426.644 814.566C426.644 807.064 428.1 800.448 431.014 794.718C433.928 788.988 438.048 784.56 443.373 781.434C448.799 778.309 455.029 776.746 462.063 776.746C469.498 776.746 475.226 778.778 479.245 782.841C483.364 786.904 485.424 791.801 485.424 797.531C485.424 801.49 484.369 805.293 482.259 808.94C480.25 812.586 477.235 815.555 473.216 817.847C469.297 820.14 464.675 821.286 459.35 821.286C456.335 821.286 453.07 820.765 449.553 819.723C446.036 818.577 444.278 816.91 444.278 814.722C444.278 813.888 444.479 813.159 444.881 812.534C445.283 811.909 445.735 811.596 446.237 811.596C446.539 811.596 447.443 811.909 448.95 812.534C450.558 813.055 452.618 813.315 455.13 813.315C460.656 813.315 464.926 811.753 467.941 808.627C470.955 805.501 472.462 801.751 472.462 797.375C472.462 793.624 471.257 790.394 468.845 787.686C466.534 784.977 463.419 783.622 459.5 783.622C453.572 783.622 448.95 786.331 445.634 791.749C442.419 797.062 440.811 804.668 440.811 814.566C440.811 823.005 442.519 829.62 445.936 834.413C449.452 839.101 454.476 841.446 461.008 841.446C469.046 841.446 475.678 838.737 480.903 833.319C481.204 833.006 481.606 832.85 482.108 832.85C482.912 832.85 483.716 833.267 484.52 834.1C485.424 834.934 485.876 835.82 485.876 836.757C485.876 837.07 485.776 837.382 485.575 837.695C485.374 837.903 485.274 838.06 485.274 838.164C481.857 842.331 477.788 845.509 473.065 847.697C468.443 849.78 463.469 850.822 458.144 850.822ZM562.52 850.822C558.802 850.822 556.14 849.676 554.532 847.384C552.924 844.988 552.12 841.133 552.12 835.82V802.063C552.12 797.271 551.116 793.676 549.106 791.28C547.096 788.78 544.132 787.529 540.214 787.529C536.295 787.529 532.828 789.144 529.814 792.374C526.9 795.604 524.639 800.136 523.031 805.97C521.424 811.805 520.62 818.525 520.62 826.13C520.62 830.506 520.921 834.048 521.524 836.757C522.228 839.466 523.383 842.019 524.991 844.415L526.649 846.603L524.991 848.791H501.026L499.67 844.415L502.232 843.633C504.644 843.217 506.201 842.279 506.904 840.82C507.708 839.258 508.11 836.653 508.11 833.006V793.312C508.11 792.166 507.909 791.384 507.507 790.967C507.105 790.446 506.402 790.186 505.397 790.186H499.519L498.163 786.435C500.775 783.935 503.79 781.903 507.206 780.34C510.622 778.778 513.637 777.996 516.249 777.996C517.555 777.996 518.61 778.413 519.414 779.246C520.218 780.08 520.62 781.122 520.62 782.372V797.844C522.931 791.697 526.448 786.644 531.17 782.685C535.893 778.726 540.867 776.746 546.092 776.746C552.422 776.746 557.044 778.778 559.958 782.841C562.972 786.904 564.479 793.312 564.479 802.063V836.288C564.479 839.518 565.836 841.133 568.549 841.133C570.759 841.133 573.02 840.143 575.331 838.164L577.894 841.758C575.582 844.467 573.02 846.655 570.207 848.322C567.393 849.989 564.831 850.822 562.52 850.822ZM605.782 850.822C602.064 850.822 599.15 849.624 597.04 847.228C594.93 844.727 593.875 841.341 593.875 837.07V787.217H581.968C581.968 784.716 582.169 783.101 582.571 782.372C582.973 781.539 583.877 780.913 585.284 780.497C590.107 779.246 593.523 777.163 595.533 774.246C597.542 771.328 599.05 767.473 600.054 762.681C600.255 761.222 600.708 760.337 601.411 760.024C602.215 759.607 603.923 759.399 606.535 759.399V778.465H624.17C624.17 780.445 623.868 782.216 623.265 783.779C622.763 785.341 622.06 786.487 621.155 787.217H606.535V833.006C606.535 835.924 606.887 838.007 607.59 839.258C608.394 840.404 609.751 840.977 611.66 840.977C614.373 840.977 617.437 839.466 620.854 836.445L623.416 840.195C621.105 843.321 618.292 845.873 614.976 847.853C611.66 849.833 608.595 850.822 605.782 850.822ZM658.024 850.822C651.191 850.822 645.514 849.207 640.992 845.978C636.471 842.644 634.21 838.32 634.21 833.006C634.21 829.881 635.265 827.276 637.375 825.193C639.586 823.005 642.349 821.911 645.665 821.911C646.368 821.911 647.021 822.067 647.624 822.38C648.227 822.692 648.528 823.109 648.528 823.63C648.528 823.942 648.227 824.88 647.624 826.443C647.021 827.901 646.72 829.673 646.72 831.756C646.72 835.611 648.026 838.58 650.639 840.664C653.351 842.748 656.366 843.79 659.682 843.79C663.5 843.79 666.615 842.748 669.026 840.664C671.438 838.58 672.644 835.872 672.644 832.538C672.644 829.516 671.337 827.016 668.725 825.036C666.213 823.057 662.545 821.025 657.722 818.941C653.301 816.962 649.584 815.086 646.569 813.315C643.655 811.544 641.143 809.2 639.033 806.283C636.923 803.366 635.868 799.823 635.868 795.656C635.868 790.134 638.229 785.602 642.952 782.06C647.674 778.517 653.603 776.746 660.737 776.746C667.268 776.746 672.644 778.048 676.864 780.653C681.084 783.153 683.194 786.644 683.194 791.124C683.194 794.77 682.139 797.74 680.029 800.032C677.919 802.324 675.156 803.47 671.739 803.47C669.73 803.47 668.725 802.793 668.725 801.438C668.725 801.021 669.077 800.084 669.78 798.625C670.584 797.166 670.986 795.5 670.986 793.624C670.986 790.29 669.83 787.79 667.519 786.123C665.208 784.352 662.596 783.466 659.682 783.466C655.964 783.466 653 784.404 650.789 786.279C648.679 788.154 647.624 790.603 647.624 793.624C647.624 797.166 649.031 800.084 651.844 802.376C654.658 804.564 658.627 806.647 663.751 808.627C668.172 810.606 671.84 812.43 674.754 814.097C677.668 815.764 680.129 817.9 682.139 820.504C684.149 823.005 685.153 825.974 685.153 829.412C685.153 835.872 682.641 841.081 677.617 845.04C672.694 848.895 666.163 850.822 658.024 850.822Z" fill="#949191"/>
<path d="M109.003 991C97.2249 991 87.6687 987.886 80.335 981.659C73.0011 975.311 69.3342 965.79 69.3342 953.096V893.455C69.3342 888.425 68.6675 884.952 67.3341 883.036C66.1118 881 63.5561 879.443 59.6669 878.365L56 877.467L58.0001 871.898H90.8356L92.8357 874.413L90.8356 877.467C88.391 881.06 86.6686 884.832 85.6686 888.784C84.6685 892.737 84.1685 897.946 84.1685 904.413V953.096C84.1685 961.599 86.7242 968.305 91.8356 973.216C96.9471 978.126 103.336 980.581 111.004 980.581C118.56 980.581 124.838 978.126 129.838 973.216C134.839 968.305 137.339 961.599 137.339 953.096V893.455C137.339 888.425 136.672 884.952 135.339 883.036C134.116 881 131.561 879.443 127.671 878.365L124.171 877.467L126.005 871.898H154.673L156.673 874.413L154.673 877.467C152.117 880.94 150.34 884.713 149.339 888.784C148.339 892.737 147.839 897.946 147.839 904.413V953.096C147.839 965.79 144.228 975.311 137.005 981.659C129.894 987.886 120.56 991 109.003 991ZM241.17 991C237.059 991 234.114 989.683 232.336 987.048C230.558 984.293 229.669 979.862 229.669 973.754V934.952C229.669 929.443 228.558 925.311 226.336 922.557C224.113 919.683 220.835 918.246 216.502 918.246C212.168 918.246 208.335 920.102 205.001 923.814C201.779 927.527 199.278 932.737 197.5 939.443C195.723 946.15 194.834 953.874 194.834 962.617C194.834 967.647 195.167 971.719 195.834 974.832C196.612 977.946 197.889 980.88 199.667 983.635L201.501 986.15L199.667 988.665H173.166L171.665 983.635L174.499 982.737C177.166 982.257 178.888 981.18 179.666 979.503C180.555 977.707 180.999 974.713 180.999 970.521V924.892C180.999 923.575 180.777 922.677 180.333 922.198C179.888 921.599 179.11 921.299 177.999 921.299H171.499L169.999 916.988C172.888 914.114 176.221 911.778 179.999 909.982C183.777 908.186 187.111 907.287 190 907.287C191.445 907.287 192.611 907.766 193.5 908.725C194.389 909.683 194.834 910.88 194.834 912.317V930.102C197.389 923.036 201.278 917.228 206.501 912.677C211.724 908.126 217.224 905.85 223.002 905.85C230.003 905.85 235.114 908.186 238.336 912.856C241.67 917.527 243.337 924.892 243.337 934.952V974.293C243.337 978.006 244.837 979.862 247.837 979.862C250.282 979.862 252.782 978.725 255.338 976.449L258.171 980.581C255.615 983.695 252.782 986.21 249.67 988.126C246.559 990.042 243.726 991 241.17 991ZM284.011 892.198C282.344 892.198 280.4 890.94 278.177 888.425C275.955 885.91 274.844 883.635 274.844 881.599C274.844 879.563 275.9 877.287 278.011 874.772C280.233 872.257 282.233 871 284.011 871C285.9 871 287.956 872.257 290.178 874.772C292.401 877.287 293.512 879.563 293.512 881.599C293.512 883.635 292.401 885.91 290.178 888.425C287.956 890.94 285.9 892.198 284.011 892.198ZM289.012 991C284.9 991 281.9 989.683 280.011 987.048C278.233 984.293 277.344 979.862 277.344 973.754V923.455C277.344 922.018 277.122 921 276.677 920.401C276.233 919.802 275.455 919.503 274.344 919.503H267.51L266.343 915.551C269.232 912.677 272.51 910.341 276.177 908.545C279.955 906.749 283.233 905.85 286.011 905.85C287.456 905.85 288.623 906.329 289.512 907.287C290.512 908.126 291.012 909.263 291.012 910.701V974.293C291.012 978.006 292.512 979.862 295.512 979.862C297.845 979.862 300.401 978.725 303.179 976.449L306.013 980.581C303.235 983.695 300.29 986.21 297.179 988.126C294.179 990.042 291.456 991 289.012 991ZM348.386 991C343.163 991 338.941 989.922 335.719 987.766C332.607 985.611 330.108 982.198 328.219 977.527C326.441 972.737 324.996 966.09 323.885 957.587L318.885 923.455C318.662 921.898 318.385 920.88 318.051 920.401C317.718 919.802 317.051 919.503 316.051 919.503H309.551L308.051 915.551C310.717 912.796 313.829 910.521 317.385 908.725C321.051 906.808 324.274 905.85 327.052 905.85C329.83 905.85 331.497 907.467 332.052 910.701L338.719 961.898C339.608 968.365 340.941 973.096 342.719 976.09C344.497 978.964 347.053 980.401 350.386 980.401C356.609 980.401 361.331 976.569 364.554 968.904C367.776 961.24 369.387 951.898 369.387 940.88C369.387 935.731 368.776 930.701 367.554 925.79C366.443 920.76 364.776 916.329 362.554 912.497L361.22 909.982L362.887 908.006L381.055 905.85C381.499 913.515 381.722 919.263 381.722 923.096C381.722 937.467 380.166 949.802 377.055 960.102C374.054 970.281 369.999 978.006 364.887 983.275C359.887 988.425 354.386 991 348.386 991ZM432.892 991C425.891 991 419.78 989.263 414.557 985.79C409.335 982.317 405.279 977.467 402.39 971.24C399.501 964.892 398.056 957.587 398.056 949.323C398.056 940.701 399.667 933.096 402.89 926.509C406.112 919.922 410.668 914.832 416.557 911.24C422.558 907.647 429.447 905.85 437.225 905.85C445.448 905.85 451.782 908.186 456.227 912.856C460.782 917.527 463.06 923.156 463.06 929.743C463.06 934.293 461.894 938.665 459.56 942.856C457.338 947.048 454.004 950.461 449.56 953.096C445.226 955.731 440.114 957.048 434.225 957.048C430.892 957.048 427.28 956.449 423.391 955.251C419.502 953.934 417.557 952.018 417.557 949.503C417.557 948.545 417.78 947.707 418.224 946.988C418.669 946.269 419.169 945.91 419.724 945.91C420.058 945.91 421.058 946.269 422.724 946.988C424.502 947.587 426.78 947.886 429.558 947.886C435.67 947.886 440.392 946.09 443.726 942.497C447.059 938.904 448.726 934.593 448.726 929.563C448.726 925.251 447.393 921.539 444.726 918.425C442.17 915.311 438.725 913.754 434.392 913.754C427.836 913.754 422.724 916.868 419.057 923.096C415.502 929.204 413.724 937.946 413.724 949.323C413.724 959.024 415.613 966.629 419.391 972.138C423.28 977.527 428.836 980.222 436.059 980.222C444.948 980.222 452.282 977.108 458.06 970.88C458.393 970.521 458.838 970.341 459.393 970.341C460.282 970.341 461.171 970.82 462.06 971.778C463.06 972.737 463.56 973.754 463.56 974.832C463.56 975.192 463.449 975.551 463.227 975.91C463.005 976.15 462.894 976.329 462.894 976.449C459.116 981.24 454.615 984.892 449.393 987.407C444.281 989.802 438.781 991 432.892 991ZM478.814 983.635L481.648 982.737C484.315 982.257 486.037 981.18 486.815 979.503C487.704 977.707 488.148 974.713 488.148 970.521V924.892C488.148 923.575 487.926 922.677 487.481 922.198C487.037 921.599 486.259 921.299 485.148 921.299H478.648L477.147 916.988C480.037 914.114 483.37 911.778 487.148 909.982C490.926 908.186 494.26 907.287 497.149 907.287C498.593 907.287 499.76 907.766 500.649 908.725C501.538 909.683 501.982 910.88 501.982 912.317V930.102H502.816C504.594 922.796 507.261 916.928 510.816 912.497C514.483 908.066 518.428 905.85 522.65 905.85C526.873 905.85 530.318 907.347 532.984 910.341C535.762 913.216 537.151 917.228 537.151 922.377C537.151 926.449 535.762 929.862 532.984 932.617C530.207 935.371 526.706 936.749 522.484 936.749C520.484 936.749 519.484 936.21 519.484 935.132C519.484 934.772 519.872 933.934 520.65 932.617C521.428 931.299 522.095 929.982 522.65 928.665C523.206 927.347 523.484 925.79 523.484 923.994C523.484 921.958 523.039 920.401 522.15 919.323C521.262 918.126 520.095 917.527 518.65 917.527C516.317 917.527 513.872 919.084 511.316 922.198C508.761 925.311 506.538 930.281 504.649 937.108C502.871 943.934 501.982 952.617 501.982 963.156C501.982 968.066 502.316 972.078 502.982 975.192C503.76 978.186 505.038 981 506.816 983.635L508.65 986.15L506.816 988.665H480.314L478.814 983.635ZM571.734 991C564.178 991 557.9 989.144 552.9 985.431C547.899 981.599 545.399 976.629 545.399 970.521C545.399 966.928 546.566 963.934 548.899 961.539C551.344 959.024 554.4 957.766 558.067 957.766C558.845 957.766 559.567 957.946 560.234 958.305C560.9 958.665 561.234 959.144 561.234 959.743C561.234 960.102 560.9 961.18 560.234 962.976C559.567 964.653 559.233 966.689 559.233 969.084C559.233 973.515 560.678 976.928 563.567 979.323C566.567 981.719 569.901 982.916 573.568 982.916C577.79 982.916 581.235 981.719 583.902 979.323C586.569 976.928 587.902 973.814 587.902 969.982C587.902 966.509 586.457 963.635 583.568 961.359C580.79 959.084 576.735 956.749 571.401 954.353C566.512 952.078 562.4 949.922 559.067 947.886C555.844 945.85 553.066 943.156 550.733 939.802C548.399 936.449 547.233 932.377 547.233 927.587C547.233 921.24 549.844 916.03 555.067 911.958C560.289 907.886 566.845 905.85 574.735 905.85C581.957 905.85 587.902 907.347 592.569 910.341C597.236 913.216 599.57 917.228 599.57 922.377C599.57 926.569 598.403 929.982 596.069 932.617C593.736 935.252 590.68 936.569 586.902 936.569C584.68 936.569 583.568 935.79 583.568 934.234C583.568 933.754 583.957 932.677 584.735 931C585.624 929.323 586.069 927.407 586.069 925.251C586.069 921.419 584.791 918.545 582.235 916.629C579.679 914.593 576.79 913.575 573.568 913.575C569.456 913.575 566.178 914.653 563.734 916.808C561.4 918.964 560.234 921.778 560.234 925.251C560.234 929.323 561.789 932.677 564.901 935.311C568.012 937.826 572.401 940.222 578.068 942.497C582.957 944.772 587.013 946.868 590.236 948.784C593.458 950.701 596.18 953.156 598.403 956.15C600.625 959.024 601.736 962.437 601.736 966.389C601.736 973.814 598.958 979.802 593.402 984.353C587.958 988.784 580.735 991 571.734 991ZM651.331 991C644.331 991 638.219 989.263 632.997 985.79C627.774 982.317 623.718 977.467 620.829 971.24C617.94 964.892 616.496 957.587 616.496 949.323C616.496 940.701 618.107 933.096 621.329 926.509C624.552 919.922 629.108 914.832 634.997 911.24C640.997 907.647 647.887 905.85 655.665 905.85C663.888 905.85 670.221 908.186 674.666 912.856C679.222 917.527 681.5 923.156 681.5 929.743C681.5 934.293 680.333 938.665 678 942.856C675.777 947.048 672.444 950.461 667.999 953.096C663.665 955.731 658.554 957.048 652.665 957.048C649.331 957.048 645.72 956.449 641.831 955.251C637.942 953.934 635.997 952.018 635.997 949.503C635.997 948.545 636.219 947.707 636.664 946.988C637.108 946.269 637.608 945.91 638.164 945.91C638.497 945.91 639.497 946.269 641.164 946.988C642.942 947.587 645.22 947.886 647.998 947.886C654.109 947.886 658.832 946.09 662.165 942.497C665.499 938.904 667.166 934.593 667.166 929.563C667.166 925.251 665.832 921.539 663.165 918.425C660.61 915.311 657.165 913.754 652.831 913.754C646.275 913.754 641.164 916.868 637.497 923.096C633.941 929.204 632.163 937.946 632.163 949.323C632.163 959.024 634.052 966.629 637.83 972.138C641.72 977.527 647.275 980.222 654.498 980.222C663.388 980.222 670.721 977.108 676.5 970.88C676.833 970.521 677.277 970.341 677.833 970.341C678.722 970.341 679.611 970.82 680.5 971.778C681.5 972.737 682 973.754 682 974.832C682 975.192 681.889 975.551 681.667 975.91C681.444 976.15 681.333 976.329 681.333 976.449C677.555 981.24 673.055 984.892 667.832 987.407C662.721 989.802 657.221 991 651.331 991Z" fill="#14144D"/>
<path d="M354.307 85.1571C305.986 92.91 267.041 123.02 243.963 170.8C231.342 196.763 229.719 205.418 229.538 242.92C229.538 277.177 229.719 278.439 240.176 305.845C249.372 330.005 272.811 359.755 296.069 377.244C305.085 383.915 322.754 402.126 331.048 413.124C339.883 424.844 350.881 449.365 354.848 466.854C373.959 546.547 324.918 626.78 243.963 648.777C207.181 658.694 163.188 654.006 133.799 637.058C92.5099 613.258 68.1693 571.969 68.1693 525.992C68.1693 478.934 91.7887 441.792 133.078 424.303C165.532 410.42 201.952 414.206 228.096 434.039C251.355 451.708 262.353 475.508 260.731 505.077C258.928 534.647 246.847 553.759 221.786 566.019C209.165 572.33 206.821 572.871 192.577 572.871C179.595 572.871 175.809 572.149 167.335 568.002C139.388 554.3 127.488 523.288 139.568 496.243C146.961 479.475 161.205 470.64 179.775 470.64C203.215 470.82 220.343 489.752 216.917 511.929C214.574 527.615 197.625 539.876 183.021 536.63C171.301 534.106 165.351 527.254 162.827 513.732C161.205 505.438 158.32 506.7 158.32 515.896C158.32 524.009 163.909 533.204 172.563 538.974C180.857 544.563 194.56 544.563 205.378 538.974C235.128 523.288 227.375 474.426 193.659 465.411C181.939 462.166 163.548 464.33 154.173 469.739C136.143 480.376 127.669 495.702 127.669 518.059C127.669 535.188 131.815 546.366 142.273 558.266C168.957 588.016 215.475 588.737 245.766 559.889C262.714 543.662 269.205 526.894 269.024 499.849C269.024 479.294 265.418 466.493 255.862 451.708C236.931 422.68 208.263 407.535 171.842 407.535C151.649 407.535 133.438 412.403 115.048 422.86C85.2979 439.809 64.7436 471.902 59.1543 510.486C51.4014 562.954 83.4949 623.715 131.635 647.876C166.433 665.365 207.362 669.692 244.684 659.775C275.695 651.482 300.397 637.238 322.754 614.7C350.52 586.754 363.502 558.627 370.173 512.47C379.729 447.201 429.131 394.373 492.417 381.571C503.055 379.408 512.611 378.867 527.756 379.408C545.606 380.129 551.556 381.391 568.504 386.981C579.502 390.587 591.402 395.635 595.008 397.979C598.794 400.503 602.4 402.486 603.302 402.486C605.826 402.486 632.15 424.844 639.182 433.137C656.13 452.61 668.03 475.688 673.078 498.587C677.406 518.239 676.143 551.956 670.554 568.363C657.753 604.964 628.905 634.533 592.484 648.056C537.312 668.43 477.993 641.024 457.98 585.852C454.193 575.214 453.292 569.805 453.292 555.742C453.472 533.385 459.422 516.977 473.485 501.471C504.497 467.214 552.097 463.789 581.305 493.899C594.287 507.241 599.155 518.961 598.975 537.712C598.975 556.103 596.27 562.954 584.731 575.395C574.454 586.393 561.652 592.163 547.95 592.163C515.495 592.343 494.4 559.528 509.365 532.123C515.315 520.944 529.198 513.191 540.377 514.814C554.801 516.617 565.799 528.697 565.799 542.4C565.799 550.694 563.275 555.381 555.342 562.413C547.409 569.445 551.195 570.527 560.571 564.216C585.272 547.628 569.225 507.782 537.853 508.323C526.133 508.503 517.118 512.65 508.464 521.485C500.531 529.779 497.285 538.613 497.285 551.415C497.826 598.113 556.784 616.503 590.32 580.623C604.925 564.937 611.415 544.383 607.269 526.173C596.09 476.229 543.442 450.987 496.925 473.164C458.16 491.735 437.065 533.926 445.719 575.575C454.193 615.962 485.746 648.957 526.854 660.316C546.327 665.725 573.011 664.824 593.025 657.972C639.542 642.106 675.062 602.26 683.716 555.922C701.926 460.183 622.234 368.77 520.364 368.229C501.071 368.229 483.041 371.655 463.028 379.047C425.345 393.111 421.018 394.012 391.809 394.193C362.961 394.193 352.323 392.39 330.507 383.194C280.924 362.64 244.503 313.238 239.455 259.688C234.587 208.483 250.093 164.67 284.891 130.953C309.772 106.793 334.474 96.1554 368.37 94.713C393.792 93.4509 413.806 97.9584 435.081 109.678C473.485 130.593 494.04 163.408 494.04 204.156C494.04 258.967 454.914 301.518 404.43 301.518C373.779 301.518 346.193 284.93 331.949 257.885C327.262 249.231 326.901 246.707 326.901 229.398C326.901 212.089 327.442 209.565 332.13 200.189C338.44 187.568 349.258 176.389 361.158 170.259C373.238 163.949 393.071 163.588 405.512 169.358C432.737 181.798 443.555 209.024 430.934 233.184C424.624 245.264 414.347 252.656 401.906 254.099C372.156 257.525 353.045 226.513 371.796 204.877C377.565 198.206 378.467 197.845 388.383 197.845C394.333 197.845 400.824 198.566 403.168 199.287C410.56 201.992 407.315 197.304 398.841 193.338C385.499 186.666 371.255 191.715 362.42 206.319C349.438 227.234 362.961 254.82 388.744 260.229C417.592 266.179 441.031 246.526 442.834 214.974C443.916 196.763 439.409 185.945 425.706 173.504C397.218 147.541 351.782 154.032 329.605 187.568C308.691 219.301 314.821 262.032 344.21 287.635C381.893 320.63 439.409 317.565 473.305 280.964C506.12 245.625 512.971 196.222 491.335 151.868C483.222 135.281 457.799 110.039 439.769 100.663C414.707 87.6813 379.549 81.1905 354.307 85.1571ZM354.307 401.765C363.502 403.748 376.664 405.011 392.35 405.011C405.332 405.011 416.15 405.371 416.15 405.912C416.15 406.273 410.921 412.042 404.611 418.713C390.908 433.318 383.696 443.595 375.402 460.363C371.976 467.214 368.55 472.443 367.649 472.082C366.747 471.542 365.485 467.395 364.764 462.707C363.141 451.168 352.323 426.106 342.948 412.223C334.654 399.782 333.211 395.996 337.539 397.618C338.981 398.159 346.554 400.142 354.307 401.765Z" fill="#14144D"/>
<mask id="path-5-outside-1_80_220" maskUnits="userSpaceOnUse" x="1" y="0" width="743" height="1133" fill="black">
<rect fill="white" x="1" width="743" height="1133"/>
<path d="M15 50C15 22.3858 37.3858 0 65 0H694C721.614 0 744 22.3858 744 50V1083C744 1110.61 721.614 1133 694 1133H65C37.3858 1133 15 1110.61 15 1083V50Z"/>
</mask>
<path d="M15 0H744H15ZM744 1133H15H744ZM65 1133C29.6538 1133 1 1104.35 1 1069V64C1 28.6538 29.6538 0 65 0C45.1177 0 29 22.3858 29 50V1083C29 1110.61 45.1177 1133 65 1133ZM744 0V1133V0Z" fill="#A29D9D" mask="url(#path-5-outside-1_80_220)"/>
<mask id="path-7-outside-2_80_220" maskUnits="userSpaceOnUse" x="27" y="705" width="684" height="428" fill="black">
<rect fill="white" x="27" y="705" width="684" height="428"/>
<path d="M711 760C711 732.386 688.614 710 661 710H77C49.3858 710 27 732.386 27 760V1083C27 1110.61 49.3858 1133 77 1133H661C688.614 1133 711 1110.61 711 1083V760Z"/>
</mask>
<path d="M711 760C711 729.624 686.376 705 656 705H82C51.6243 705 27 729.624 27 760C27 735.147 49.3858 715 77 715H661C688.614 715 711 735.147 711 760ZM27 1133H711H27ZM711 1133V710V1133ZM27 710V1133V710Z" fill="#FFA500" mask="url(#path-7-outside-2_80_220)"/>
<mask id="path-9-outside-3_80_220" maskUnits="userSpaceOnUse" x="215" y="281" width="496" height="428" fill="black">
<rect fill="white" x="215" y="281" width="496" height="428"/>
<path d="M711 331C711 303.386 688.614 281 661 281H265C237.386 281 215 303.386 215 331V654C215 681.614 237.386 704 265 704H661C688.614 704 711 681.614 711 654V331Z"/>
</mask>
<path d="M711 281H215H711ZM215 654C215 684.376 239.624 709 270 709H656C686.376 709 711 684.376 711 654C711 678.853 688.614 699 661 699H265C237.386 699 215 678.853 215 654ZM711 704V281V704ZM215 281V704V281Z" fill="#FFA500" mask="url(#path-9-outside-3_80_220)"/>
</svg>
